<svg width="80" height="80" viewBox="0 0 80 80" fill="none" xmlns="http://www.w3.org/2000/svg">
<path d="M58.1817 54.5455C58.1817 56.5538 56.5536 58.1819 54.5453 58.1819H47.2726C45.2643 58.1819 43.6362 56.5538 43.6362 54.5455V25.4546C43.6362 23.4463 45.2643 21.8182 47.2726 21.8182H54.5453C56.5536 21.8182 58.1817 23.4463 58.1817 25.4546V54.5455Z" fill="white"/>
<path d="M36.3636 25.4546V54.5455C36.3636 56.5538 34.7355 58.1819 32.7272 58.1819H25.4545C23.4462 58.1819 21.8181 56.5538 21.8181 54.5455V25.4546C21.8181 23.4463 23.4462 21.8182 25.4545 21.8182H32.7272C34.7355 21.8182 36.3636 23.4463 36.3636 25.4546Z" fill="white"/>
</svg>
