<svg width="80" height="80" viewBox="0 0 80 80" fill="none" xmlns="http://www.w3.org/2000/svg">
<path d="M37.571 54.6781C36.3424 54.4236 35.1401 55.2132 34.8856 56.4418C34.631 57.6703 35.4206 58.8727 36.6492 59.1272C45.4312 60.9387 54.3182 56.5358 58.1975 48.4515C62.0768 40.3671 59.951 30.6797 53.0431 24.9625C46.1352 19.2452 36.2212 18.968 29.0046 24.2902C21.788 29.6125 19.1241 39.166 22.5456 47.4545C22.628 47.6497 22.5646 47.8759 22.3928 47.9999L20.5746 49.3199C19.9939 49.7413 19.7153 50.4648 19.8635 51.1668C20.0116 51.8689 20.5587 52.4181 21.2601 52.569L28.4346 54.1127C28.5603 54.1387 28.6882 54.1521 28.8165 54.1527C29.6737 54.1529 30.4146 53.5544 30.5946 52.7163L32.3128 44.7163C32.4716 43.9797 32.1596 43.2214 31.5282 42.8099C30.8969 42.3984 30.0772 42.4191 29.4674 42.8618L26.9928 44.6599C26.8743 44.7463 26.7213 44.7702 26.5821 44.724C26.4429 44.6778 26.3345 44.5673 26.291 44.4272C24.2916 37.962 26.866 30.9584 32.5767 27.3272C38.2874 23.6961 45.7217 24.3357 50.7283 28.8888C55.7349 33.442 57.0753 40.7824 54.0011 46.8111C50.9268 52.8399 44.1983 56.0657 37.5728 54.6872L37.571 54.6781Z" fill="white"/>
</svg>
